<svg xmlns="http://www.w3.org/2000/svg" viewBox="0 0 824.6 145.2"><path d="M0 143.9V1.3h57v27.8H28.6v22.7h26.9v27.5H28.6v64.6zM67.5 143.9V1.3H95v142.6zM105 143.9l15.3-75.6-12.2-67.1H136l7.4 49 6.6-49h28l-12.2 67.1 15.2 75.6h-28.8l-9-55.7-9.2 55.7h-28.9ZM204.3 143.9V28.7h-16.9V1.3h62.4v27.4h-16.9v115.2h-28.5ZM293.3 145.2c-11.9 0-20.6-3.3-26.2-10q-8.4-10.05-8.4-29.4V1.3h27.7v103.3c0 2.4.1 4.7.4 6.8.3 2.2.9 4 1.9 5.4s2.5 2.1 4.7 2.1 3.8-.7 4.8-2.1 1.6-3.2 1.8-5.4.4-4.5.4-6.9V1.3h27.7v104.4q0 19.5-8.4 29.4c-8.4 9.9-14.4 10-26.2 10ZM341.5 143.9V1.3h43.7c7.3 0 12.8 1.7 16.5 5s6.2 8 7.5 13.9c1.3 6 1.9 13 1.9 21s-1 14-3 18.6-5.7 7.9-11.1 9.6c4.5.9 7.6 3.1 9.4 6.7 1.8 3.5 2.7 8.1 2.7 13.7v54H381V88c0-4.2-.9-6.7-2.6-7.7s-4.4-1.5-8.2-1.5v65.1h-28.8Zm29-89.8h6.9c3.9 0 5.9-4.3 5.9-12.9s-.4-9.2-1.3-10.9-2.5-2.6-4.9-2.6h-6.6zM423.3 143.9V1.3h57v27.5h-28v27.8h26.9v26.8h-26.9V116h29.9v27.8h-58.9Z" style="fill:#fff"/><path d="M494.2 143.9V1.3h57v27.8h-28.4v22.7h26.9v27.5h-26.9v64.6h-28.7ZM563.1 143.9V1.3h28.5v118.3h29.3v24.3zM665.7 145.2c-11.4 0-20.1-3.4-26.1-10.3s-9-16.8-9-29.9V37.3c0-12.2 3-21.5 9-27.8S654.3 0 665.8 0 686 3.2 692 9.5s9 15.6 9 27.8V105c0 13-3 23-9 29.9s-14.7 10.3-26.1 10.3Zm.2-26.3c4.3 0 6.5-4.2 6.5-12.6V36.8q0-10.5-6.3-10.5c-6.3 0-7.1 3.6-7.1 10.8v69.5c0 4.4.5 7.6 1.6 9.5s2.9 2.9 5.3 2.9ZM726.2 143.9 710.9 1.3h27.9l7.9 90 8-90h26.6l7.6 90 7.6-90h28.2l-15.6 142.6h-34.2l-7.1-68.6-6.8 68.6z" style="fill:#e74525"/></svg>